<svg width="748" height="508" viewBox="0 0 748 508" fill="none" xmlns="http://www.w3.org/2000/svg">
    <g clip-path="url(#clip0_24_34)">
        <g filter="url(#filter0_d_24_34)">
            <path d="M11.8114 319.805L-54.8848 311.354L-28.3455 369.317L38.3507 377.768L11.8114 319.805Z"
                fill="black" />
            <path d="M144.513 336.619L77.8166 328.168L104.356 386.131L171.052 394.582L144.513 336.619Z" fill="black" />
            <path d="M78.1623 328.212L11.4661 319.761L38.0054 377.724L104.702 386.175L78.1623 328.212Z"
                fill="#D3A911" />
            <path d="M277.214 353.433L210.518 344.982L237.057 402.945L303.753 411.396L277.214 353.433Z" fill="black" />
            <path d="M210.863 345.026L144.167 336.575L170.706 394.538L237.403 402.989L210.863 345.026Z"
                fill="#D3A911" />
            <path d="M409.915 370.247L343.219 361.796L369.758 419.759L436.455 428.21L409.915 370.247Z" fill="black" />
            <path d="M343.565 361.84L276.869 353.389L303.408 411.352L370.104 419.803L343.565 361.84Z" fill="#D3A911" />
            <path d="M544.221 387.264L477.525 378.814L504.064 436.776L570.76 445.227L544.221 387.264Z" fill="black" />
            <path d="M477.87 378.858L411.174 370.407L437.713 428.369L504.41 436.82L477.87 378.858Z" fill="#D3A911" />
            <path d="M676.922 404.079L610.226 395.628L636.766 453.59L703.462 462.041L676.922 404.079Z" fill="black" />
            <path d="M610.572 395.672L543.875 387.221L570.415 445.183L637.111 453.634L610.572 395.672Z"
                fill="#D3A911" />
            <path d="M809.624 420.893L742.927 412.442L769.467 470.404L836.163 478.855L809.624 420.893Z" fill="black" />
            <path d="M743.273 412.486L676.577 404.035L703.116 461.997L769.812 470.448L743.273 412.486Z"
                fill="#D3A911" />
        </g>
        <g filter="url(#filter1_d_24_34)">
            <path d="M-14.428 502.019L-84.245 528.452L-29.1096 568.66L40.7074 542.226L-14.428 502.019Z" fill="black" />
            <path d="M124.483 449.426L54.6655 475.859L109.801 516.067L179.618 489.633L124.483 449.426Z" fill="black" />
            <path d="M55.0272 475.722L-14.7898 502.156L40.3456 542.363L110.163 515.93L55.0272 475.722Z"
                fill="#D3A911" />
            <path d="M263.393 396.833L193.576 423.266L248.711 463.474L318.528 437.041L263.393 396.833Z" fill="black" />
            <path d="M193.938 423.129L124.121 449.563L179.256 489.77L249.073 463.337L193.938 423.129Z" fill="#D3A911" />
            <path d="M402.303 344.24L332.486 370.674L387.622 410.881L457.439 384.448L402.303 344.24Z" fill="black" />
            <path d="M332.848 370.537L263.031 396.97L318.167 437.177L387.984 410.744L332.848 370.537Z" fill="#D3A911" />
            <path d="M541.214 291.647L471.397 318.081L526.532 358.288L596.349 331.855L541.214 291.647Z" fill="black" />
            <path d="M471.759 317.944L401.942 344.377L457.077 384.585L526.894 358.151L471.759 317.944Z"
                fill="#D3A911" />
            <path d="M680.124 239.054L610.307 265.488L665.443 305.695L735.26 279.262L680.124 239.054Z" fill="black" />
            <path d="M610.669 265.351L540.852 291.784L595.987 331.992L665.804 305.558L610.669 265.351Z"
                fill="#D3A911" />
            <path d="M749.58 212.758L679.763 239.191L734.898 279.399L804.715 252.965L749.58 212.758Z" fill="#D3A911" />
        </g>
        <g filter="url(#filter2_d_24_34)">
            <path d="M70.7479 86.4072L2.31163 93.7268L42.3391 144.382L110.775 137.063L70.7479 86.4072Z" fill="black" />
            <path d="M2.6662 93.6889L-65.77 101.009L-25.7425 151.664L42.6937 144.345L2.6662 93.6889Z" fill="#D3A911" />
            <path d="M206.911 71.8436L138.475 79.1633L178.502 129.819L246.939 122.499L206.911 71.8436Z" fill="black" />
            <path d="M138.829 79.1254L70.3931 86.4451L110.421 137.101L178.857 129.781L138.829 79.1254Z"
                fill="#D3A911" />
            <path d="M343.074 57.2801L274.638 64.5998L314.666 115.255L383.102 107.936L343.074 57.2801Z" fill="black" />
            <path d="M274.993 64.5619L206.556 71.8816L246.584 122.537L315.02 115.218L274.993 64.5619Z" fill="#D3A911" />
            <path d="M479.238 42.7165L410.801 50.0362L450.829 100.692L519.265 93.3722L479.238 42.7165Z" fill="black" />
            <path d="M411.156 49.9983L342.72 57.318L382.747 107.974L451.184 100.654L411.156 49.9983Z" fill="#D3A911" />
            <path d="M615.401 28.1531L546.964 35.4728L586.992 86.1284L655.428 78.8087L615.401 28.1531Z" fill="black" />
            <path d="M547.319 35.4348L478.883 42.7545L518.91 93.4101L587.347 86.0905L547.319 35.4348Z" fill="#D3A911" />
            <path d="M751.564 13.5895L683.128 20.9092L723.155 71.5649L791.592 64.2452L751.564 13.5895Z" fill="black" />
            <path d="M683.483 20.8713L615.046 28.1909L655.074 78.8466L723.51 71.5269L683.483 20.8713Z" fill="#D3A911" />
        </g>
    </g>
    <defs>
        <filter id="filter0_d_24_34" x="-1184.45" y="168.232" width="2165.31" height="339.437"
            filterUnits="userSpaceOnUse" color-interpolation-filters="sRGB">
            <feFlood flood-opacity="0" result="BackgroundImageFix" />
            <feColorMatrix in="SourceAlpha" type="matrix" values="0 0 0 0 0 0 0 0 0 0 0 0 0 0 0 0 0 0 127 0"
                result="hardAlpha" />
            <feOffset dx="6" dy="6" />
            <feGaussianBlur stdDeviation="3" />
            <feComposite in2="hardAlpha" operator="out" />
            <feColorMatrix type="matrix" values="0 0 0 0 0 0 0 0 0 0 0 0 0 0 0 0 0 0 0.25 0" />
            <feBlend mode="normal" in2="BackgroundImageFix" result="effect1_dropShadow_24_34" />
            <feBlend mode="normal" in="SourceGraphic" in2="effect1_dropShadow_24_34" result="shape" />
        </filter>
        <filter id="filter1_d_24_34" x="-849.932" y="-24.5459" width="2293.42" height="895.102"
            filterUnits="userSpaceOnUse" color-interpolation-filters="sRGB">
            <feFlood flood-opacity="0" result="BackgroundImageFix" />
            <feColorMatrix in="SourceAlpha" type="matrix" values="0 0 0 0 0 0 0 0 0 0 0 0 0 0 0 0 0 0 127 0"
                result="hardAlpha" />
            <feOffset dx="6" dy="6" />
            <feGaussianBlur stdDeviation="3" />
            <feComposite in2="hardAlpha" operator="out" />
            <feColorMatrix type="matrix" values="0 0 0 0 0 0 0 0 0 0 0 0 0 0 0 0 0 0 0.25 0" />
            <feBlend mode="normal" in2="BackgroundImageFix" result="effect1_dropShadow_24_34" />
            <feBlend mode="normal" in="SourceGraphic" in2="effect1_dropShadow_24_34" result="shape" />
        </filter>
        <filter id="filter2_d_24_34" x="-884.396" y="-44.8407" width="2234.29" height="296.062"
            filterUnits="userSpaceOnUse" color-interpolation-filters="sRGB">
            <feFlood flood-opacity="0" result="BackgroundImageFix" />
            <feColorMatrix in="SourceAlpha" type="matrix" values="0 0 0 0 0 0 0 0 0 0 0 0 0 0 0 0 0 0 127 0"
                result="hardAlpha" />
            <feOffset dx="6" dy="6" />
            <feGaussianBlur stdDeviation="3" />
            <feComposite in2="hardAlpha" operator="out" />
            <feColorMatrix type="matrix" values="0 0 0 0 0 0 0 0 0 0 0 0 0 0 0 0 0 0 0.25 0" />
            <feBlend mode="normal" in2="BackgroundImageFix" result="effect1_dropShadow_24_34" />
            <feBlend mode="normal" in="SourceGraphic" in2="effect1_dropShadow_24_34" result="shape" />
        </filter>
        <clipPath id="clip0_24_34">
            <rect width="746.372" height="506.97" fill="white" transform="translate(0.696945 0.600006)" />
        </clipPath>
    </defs>
</svg>